<svg width="938" height="772" viewBox="0 0 938 772" fill="none" xmlns="http://www.w3.org/2000/svg" xmlns:xlink="http://www.w3.org/1999/xlink">
<path d="M0,245.5L77.5,245.5L155,245.5L155,323L77.5,323L77.5,400.5L155,400.5L155,478L77.5,478L0,478L0,400.5L0,323L0,245.5Z" clip-rule="evenodd" fill-rule="evenodd" stroke="#C778DD" stroke-width="1" stroke-miterlimit="3.999327"/>
<path d="M155,168L232.5,168L310,168L310,245.5L310,323L310,400.5L232.5,400.5L155,400.5L155,323L232.5,323L232.5,245.5L155,245.5L155,168Z" clip-rule="evenodd" fill-rule="evenodd" stroke="#C778DD" stroke-width="1" stroke-miterlimit="3.999327"/>
<rect  x="24" y="0" width="914" height="772" fill="url(#pattern_0_10_213)"/>
<circle cx="742" cy="496" r="4" fill="#ABB2BF"/>
<circle cx="782" cy="496" r="4" fill="#ABB2BF"/>
<circle cx="822" cy="496" r="4" fill="#ABB2BF"/>
<circle cx="862" cy="496" r="4" fill="#ABB2BF"/>
<circle cx="902" cy="496" r="4" fill="#ABB2BF"/>
<circle cx="742" cy="536" r="4" fill="#ABB2BF"/>
<circle cx="782" cy="536" r="4" fill="#ABB2BF"/>
<circle cx="822" cy="536" r="4" fill="#ABB2BF"/>
<circle cx="862" cy="536" r="4" fill="#ABB2BF"/>
<circle cx="902" cy="536" r="4" fill="#ABB2BF"/>
<circle cx="742" cy="576" r="4" fill="#ABB2BF"/>
<circle cx="782" cy="576" r="4" fill="#ABB2BF"/>
<circle cx="822" cy="576" r="4" fill="#ABB2BF"/>
<circle cx="862" cy="576" r="4" fill="#ABB2BF"/>
<circle cx="902" cy="576" r="4" fill="#ABB2BF"/>
<circle cx="742" cy="616" r="4" fill="#ABB2BF"/>
<circle cx="782" cy="616" r="4" fill="#ABB2BF"/>
<circle cx="822" cy="616" r="4" fill="#ABB2BF"/>
<circle cx="862" cy="616" r="4" fill="#ABB2BF"/>
<circle cx="902" cy="616" r="4" fill="#ABB2BF"/>
<circle cx="742" cy="656" r="4" fill="#ABB2BF"/>
<circle cx="782" cy="656" r="4" fill="#ABB2BF"/>
<circle cx="822" cy="656" r="4" fill="#ABB2BF"/>
<circle cx="862" cy="656" r="4" fill="#ABB2BF"/>
<circle cx="902" cy="656" r="4" fill="#ABB2BF"/>
</svg>
