<svg width="686" height="1016" viewBox="0 0 686 1016" fill="none" xmlns="http://www.w3.org/2000/svg" xmlns:xlink="http://www.w3.org/1999/xlink">
<rect  x="8" y="0" width="678" height="1014" fill="url(#pattern_0_23_704)"/>
<circle cx="450" cy="562" r="4" fill="#ABB2BF"/>
<circle cx="500" cy="562" r="4" fill="#ABB2BF"/>
<circle cx="550" cy="562" r="4" fill="#ABB2BF"/>
<circle cx="600" cy="562" r="4" fill="#ABB2BF"/>
<circle cx="650" cy="562" r="4" fill="#ABB2BF"/>
<circle cx="450" cy="596.667" r="4" fill="#ABB2BF"/>
<circle cx="500" cy="596.667" r="4" fill="#ABB2BF"/>
<circle cx="550" cy="596.667" r="4" fill="#ABB2BF"/>
<circle cx="600" cy="596.667" r="4" fill="#ABB2BF"/>
<circle cx="650" cy="596.667" r="4" fill="#ABB2BF"/>
<circle cx="450" cy="631.333" r="4" fill="#ABB2BF"/>
<circle cx="500" cy="631.333" r="4" fill="#ABB2BF"/>
<circle cx="550" cy="631.333" r="4" fill="#ABB2BF"/>
<circle cx="600" cy="631.333" r="4" fill="#ABB2BF"/>
<circle cx="650" cy="631.333" r="4" fill="#ABB2BF"/>
<circle cx="450" cy="666" r="4" fill="#ABB2BF"/>
<circle cx="500" cy="666" r="4" fill="#ABB2BF"/>
<circle cx="550" cy="666" r="4" fill="#ABB2BF"/>
<circle cx="600" cy="666" r="4" fill="#ABB2BF"/>
<circle cx="650" cy="666" r="4" fill="#ABB2BF"/>
<circle cx="4" cy="122" r="4" fill="#ABB2BF"/>
<circle cx="44" cy="122" r="4" fill="#ABB2BF"/>
<circle cx="84" cy="122" r="4" fill="#ABB2BF"/>
<circle cx="124" cy="122" r="4" fill="#ABB2BF"/>
<circle cx="164" cy="122" r="4" fill="#ABB2BF"/>
<circle cx="4" cy="162" r="4" fill="#ABB2BF"/>
<circle cx="44" cy="162" r="4" fill="#ABB2BF"/>
<circle cx="84" cy="162" r="4" fill="#ABB2BF"/>
<circle cx="124" cy="162" r="4" fill="#ABB2BF"/>
<circle cx="164" cy="162" r="4" fill="#ABB2BF"/>
<circle cx="4" cy="202" r="4" fill="#ABB2BF"/>
<circle cx="44" cy="202" r="4" fill="#ABB2BF"/>
<circle cx="84" cy="202" r="4" fill="#ABB2BF"/>
<circle cx="124" cy="202" r="4" fill="#ABB2BF"/>
<circle cx="164" cy="202" r="4" fill="#ABB2BF"/>
<circle cx="4" cy="242" r="4" fill="#ABB2BF"/>
<circle cx="44" cy="242" r="4" fill="#ABB2BF"/>
<circle cx="84" cy="242" r="4" fill="#ABB2BF"/>
<circle cx="124" cy="242" r="4" fill="#ABB2BF"/>
<circle cx="164" cy="242" r="4" fill="#ABB2BF"/>
<circle cx="4" cy="282" r="4" fill="#ABB2BF"/>
<circle cx="44" cy="282" r="4" fill="#ABB2BF"/>
<circle cx="84" cy="282" r="4" fill="#ABB2BF"/>
<circle cx="124" cy="282" r="4" fill="#ABB2BF"/>
<circle cx="164" cy="282" r="4" fill="#ABB2BF"/>
<rect  x="96" y="1014" width="542" height="2" fill="#C778DD"/>
</svg>
