<svg width="632" height="522" viewBox="0 0 632 522" fill="none" xmlns="http://www.w3.org/2000/svg" xmlns:xlink="http://www.w3.org/1999/xlink">
<path d="M0,165.412L52.217,165.412L104.435,165.412L104.435,217.629L52.217,217.629L52.217,269.847L104.435,269.847L104.435,322.064L52.217,322.064L0,322.064L0,269.847L0,217.629L0,165.412Z" clip-rule="evenodd" fill-rule="evenodd" stroke="#C778DD" stroke-width="1" stroke-miterlimit="3.999327"/>
<path d="M104.435,113.194L156.652,113.194L208.87,113.194L208.87,165.411L208.87,217.629L208.87,269.846L156.652,269.846L104.435,269.846L104.435,217.629L156.652,217.629L156.652,165.411L104.435,165.411L104.435,113.194Z" clip-rule="evenodd" fill-rule="evenodd" stroke="#C778DD" stroke-width="1" stroke-miterlimit="3.999327"/>
<rect  x="16.171" y="0" width="615.829" height="520.154" fill="url(#pattern_0_200_1458)"/>
<circle cx="501.245" cy="335.497" r="4" fill="#ABB2BF"/>
<circle cx="527.544" cy="335.497" r="4" fill="#ABB2BF"/>
<circle cx="553.842" cy="335.497" r="4" fill="#ABB2BF"/>
<circle cx="580.141" cy="335.497" r="4" fill="#ABB2BF"/>
<circle cx="606.439" cy="335.497" r="4" fill="#ABB2BF"/>
<circle cx="501.245" cy="361.795" r="4" fill="#ABB2BF"/>
<circle cx="527.544" cy="361.795" r="4" fill="#ABB2BF"/>
<circle cx="553.842" cy="361.795" r="4" fill="#ABB2BF"/>
<circle cx="580.141" cy="361.795" r="4" fill="#ABB2BF"/>
<circle cx="606.439" cy="361.795" r="4" fill="#ABB2BF"/>
<circle cx="501.245" cy="388.094" r="4" fill="#ABB2BF"/>
<circle cx="527.544" cy="388.094" r="4" fill="#ABB2BF"/>
<circle cx="553.842" cy="388.094" r="4" fill="#ABB2BF"/>
<circle cx="580.141" cy="388.094" r="4" fill="#ABB2BF"/>
<circle cx="606.439" cy="388.094" r="4" fill="#ABB2BF"/>
<circle cx="501.245" cy="414.392" r="4" fill="#ABB2BF"/>
<circle cx="527.544" cy="414.392" r="4" fill="#ABB2BF"/>
<circle cx="553.842" cy="414.392" r="4" fill="#ABB2BF"/>
<circle cx="580.141" cy="414.392" r="4" fill="#ABB2BF"/>
<circle cx="606.439" cy="414.392" r="4" fill="#ABB2BF"/>
<circle cx="501.245" cy="440.691" r="4" fill="#ABB2BF"/>
<circle cx="527.544" cy="440.691" r="4" fill="#ABB2BF"/>
<circle cx="553.842" cy="440.691" r="4" fill="#ABB2BF"/>
<circle cx="580.141" cy="440.691" r="4" fill="#ABB2BF"/>
<circle cx="606.439" cy="440.691" r="4" fill="#ABB2BF"/>
</svg>
