<svg width="50" height="40" viewBox="0 0 50 40" fill="none" xmlns="http://www.w3.org/2000/svg" xmlns:xlink="http://www.w3.org/1999/xlink">
<path d="M41.328,3.318C38.086,1.757 34.665,0.642 31.15,0.002C31.118,-0.003 31.086,0.002 31.057,0.016C31.027,0.031 31.003,0.055 30.988,0.084C30.547,0.904 30.06,1.977 29.719,2.816C25.93,2.213 22.077,2.213 18.288,2.816C17.908,1.881 17.478,0.969 17,0.084C16.984,0.055 16.96,0.031 16.931,0.017C16.902,0.002 16.87,-0.003 16.838,0.002C13.322,0.639 9.9,1.754 6.66,3.318C6.632,3.329 6.609,3.35 6.594,3.377C0.113,13.541 -1.665,23.456 -0.793,33.246C-0.79,33.292 -0.762,33.338 -0.728,33.367C3.047,36.301 7.268,38.542 11.757,39.992C11.788,40.003 11.822,40.003 11.854,39.991C11.885,39.98 11.913,39.959 11.932,39.93C12.894,38.553 13.75,37.1 14.488,35.571C14.503,35.54 14.508,35.504 14.503,35.469C14.497,35.434 14.481,35.402 14.457,35.378C14.44,35.362 14.421,35.349 14.4,35.342C13.054,34.799 11.75,34.146 10.5,33.39C10.466,33.369 10.44,33.335 10.428,33.295C10.416,33.255 10.42,33.211 10.438,33.174C10.449,33.149 10.465,33.128 10.485,33.111C10.747,32.905 11.01,32.688 11.26,32.472C11.282,32.453 11.308,32.441 11.336,32.437C11.364,32.433 11.393,32.437 11.419,32.449C19.603,36.372 28.463,36.372 36.547,32.449C36.574,32.437 36.604,32.432 36.633,32.436C36.662,32.44 36.69,32.453 36.713,32.472C36.963,32.688 37.225,32.905 37.488,33.111C37.509,33.128 37.526,33.149 37.537,33.174C37.549,33.199 37.554,33.227 37.553,33.254C37.552,33.282 37.544,33.309 37.53,33.333C37.517,33.356 37.498,33.376 37.475,33.39C36.228,34.153 34.923,34.805 33.572,35.338C33.55,35.347 33.531,35.36 33.515,35.377C33.499,35.394 33.486,35.414 33.478,35.437C33.471,35.459 33.468,35.482 33.47,35.505C33.471,35.528 33.477,35.551 33.488,35.571C34.238,37.096 35.097,38.553 36.041,39.93C36.06,39.959 36.087,39.98 36.119,39.991C36.15,40.003 36.184,40.003 36.216,39.992C40.712,38.546 44.94,36.306 48.719,33.367C48.738,33.354 48.753,33.335 48.765,33.314C48.776,33.293 48.783,33.27 48.784,33.246C49.828,21.927 47.038,12.095 41.391,3.38C41.385,3.366 41.377,3.353 41.366,3.342C41.355,3.332 41.342,3.323 41.328,3.318L41.328,3.318ZM15.71,27.283C13.244,27.283 11.216,24.909 11.216,21.996C11.216,19.081 13.207,16.706 15.71,16.706C18.232,16.706 20.241,19.1 20.203,21.996C20.203,24.909 18.213,27.283 15.71,27.283ZM32.322,27.283C29.86,27.283 27.828,24.909 27.828,21.996C27.828,19.081 29.819,16.706 32.322,16.706C34.844,16.706 36.856,19.1 36.816,21.996C36.816,24.909 34.844,27.283 32.322,27.283Z" fill="#ABB2BF"/>
</svg>
