<svg width="38" height="50" viewBox="0 0 38 50" fill="none" xmlns="http://www.w3.org/2000/svg" xmlns:xlink="http://www.w3.org/1999/xlink">
<path d="M19,50C19,50 38,32.231 38,18.75C38,13.777 35.998,9.008 32.435,5.492C28.872,1.975 24.039,0 19,0C13.961,0 9.128,1.975 5.565,5.492C2.002,9.008 0,13.777 0,18.75C0,32.231 19,50 19,50ZM19,28.125C16.48,28.125 14.064,27.137 12.282,25.379C10.501,23.621 9.5,21.236 9.5,18.75C9.5,16.264 10.501,13.879 12.282,12.121C14.064,10.363 16.48,9.375 19,9.375C21.52,9.375 23.936,10.363 25.718,12.121C27.499,13.879 28.5,16.264 28.5,18.75C28.5,21.236 27.499,23.621 25.718,25.379C23.936,27.137 21.52,28.125 19,28.125Z" fill="#ABB2BF"/>
</svg>
