<svg width="46" height="34" viewBox="0 0 46 34" fill="none" xmlns="http://www.w3.org/2000/svg" xmlns:xlink="http://www.w3.org/1999/xlink">
<path d="M0.144,4.406C0.434,3.154 1.146,2.037 2.165,1.236C3.183,0.436 4.447,0 5.75,0L40.25,0C41.553,0 42.817,0.436 43.835,1.236C44.854,2.037 45.566,3.154 45.856,4.406L23,18.173L0.144,4.406ZM0,7.641L0,27.769L16.684,17.689L0,7.641ZM19.438,19.352L0.549,30.761C1.016,31.731 1.752,32.551 2.673,33.124C3.594,33.697 4.661,34.001 5.75,34L40.25,34C41.339,34 42.406,33.696 43.326,33.122C44.246,32.548 44.982,31.729 45.448,30.759L26.559,19.349L23,21.494L19.438,19.349L19.438,19.352ZM29.316,17.691L46,27.769L46,7.641L29.316,17.689L29.316,17.691Z" fill="#ABB2BF"/>
</svg>
