<svg width="46" height="38" viewBox="0 0 46 38" fill="none" xmlns="http://www.w3.org/2000/svg" xmlns:xlink="http://www.w3.org/1999/xlink">
<path d="M14.45,38C31.809,38 41.305,23.377 41.305,10.717C41.305,10.308 41.305,9.893 41.288,9.484C43.137,8.123 44.732,6.439 46,4.509C44.273,5.283 42.443,5.794 40.569,6.023C42.543,4.824 44.021,2.937 44.729,0.712C42.875,1.829 40.845,2.613 38.729,3.03C37.307,1.49 35.424,0.469 33.373,0.127C31.322,-0.215 29.218,0.139 27.385,1.136C25.553,2.133 24.095,3.716 23.237,5.641C22.379,7.565 22.17,9.723 22.641,11.781C18.888,11.59 15.217,10.599 11.865,8.872C8.514,7.146 5.556,4.722 3.185,1.759C1.982,3.872 1.615,6.372 2.158,8.751C2.702,11.13 4.115,13.209 6.112,14.567C4.616,14.515 3.153,14.107 1.84,13.374L1.84,13.506C1.843,15.72 2.597,17.865 3.976,19.579C5.355,21.293 7.273,22.47 9.407,22.912C8.597,23.139 7.76,23.252 6.92,23.248C6.328,23.25 5.737,23.194 5.155,23.081C5.758,24.987 6.932,26.654 8.514,27.847C10.095,29.041 12.004,29.701 13.972,29.737C10.628,32.408 6.496,33.856 2.242,33.849C1.493,33.853 0.744,33.809 0,33.718C4.317,36.516 9.33,38.002 14.45,38Z" fill="#ABB2BF"/>
</svg>
