<svg width="24" height="24" viewBox="0 0 24 24" fill="none" xmlns="http://www.w3.org/2000/svg" xmlns:xlink="http://www.w3.org/1999/xlink">
<path d="M23,11.5C23,14.55 21.788,17.475 19.632,19.632C17.475,21.788 14.55,23 11.5,23C8.45,23 5.525,21.788 3.368,19.632C1.212,17.475 0,14.55 0,11.5C0,8.45 1.212,5.525 3.368,3.368C5.525,1.212 8.45,0 11.5,0C14.55,0 17.475,1.212 19.632,3.368C21.788,5.525 23,8.45 23,11.5L23,11.5ZM11.913,8.49C10.794,8.956 8.557,9.919 5.205,11.379C4.662,11.595 4.376,11.808 4.35,12.015C4.307,12.364 4.745,12.502 5.342,12.69L5.593,12.769C6.18,12.961 6.97,13.183 7.38,13.192C7.754,13.201 8.169,13.048 8.628,12.732C11.76,10.617 13.377,9.549 13.478,9.526C13.55,9.509 13.65,9.489 13.717,9.549C13.784,9.608 13.777,9.722 13.77,9.752C13.727,9.937 12.006,11.536 11.116,12.364C10.839,12.623 10.642,12.805 10.602,12.847C10.513,12.938 10.423,13.027 10.331,13.114C9.785,13.64 9.377,14.034 10.353,14.678C10.823,14.989 11.2,15.243 11.575,15.499C11.983,15.778 12.391,16.055 12.92,16.403C13.054,16.49 13.183,16.583 13.308,16.672C13.784,17.011 14.214,17.316 14.742,17.267C15.049,17.239 15.367,16.951 15.528,16.088C15.909,14.052 16.658,9.64 16.83,7.821C16.841,7.67 16.835,7.518 16.812,7.369C16.798,7.248 16.74,7.136 16.648,7.057C16.517,6.966 16.361,6.92 16.202,6.923C15.771,6.93 15.105,7.162 11.913,8.49L11.913,8.49Z" fill="#ABB2BF"/>
</svg>
