<svg width="42" height="40" viewBox="0 0 42 40" fill="none" xmlns="http://www.w3.org/2000/svg" xmlns:xlink="http://www.w3.org/1999/xlink">
<path d="M21,0C9.398,0 0,9.176 0,20.506C0,29.58 6.011,37.244 14.359,39.961C15.409,40.14 15.803,39.525 15.803,38.987C15.803,38.5 15.776,36.885 15.776,35.168C10.5,36.116 9.135,33.912 8.715,32.758C8.479,32.169 7.455,30.349 6.563,29.862C5.828,29.477 4.778,28.529 6.536,28.503C8.19,28.478 9.371,29.99 9.765,30.605C11.655,33.707 14.674,32.835 15.881,32.297C16.065,30.964 16.616,30.067 17.22,29.554C12.548,29.041 7.665,27.273 7.665,19.429C7.665,17.199 8.479,15.354 9.818,13.918C9.608,13.406 8.873,11.304 10.028,8.484C10.028,8.484 11.786,7.946 15.803,10.586C17.483,10.125 19.268,9.894 21.053,9.894C22.838,9.894 24.623,10.125 26.303,10.586C30.319,7.92 32.077,8.484 32.077,8.484C33.233,11.304 32.498,13.406 32.288,13.918C33.626,15.354 34.44,17.174 34.44,19.429C34.44,27.298 29.531,29.041 24.859,29.554C25.62,30.195 26.276,31.425 26.276,33.348C26.276,36.09 26.25,38.295 26.25,38.987C26.25,39.525 26.644,40.166 27.694,39.961C31.863,38.587 35.486,35.971 38.052,32.481C40.618,28.991 41.999,24.802 42,20.506C42,9.176 32.603,0 21,0Z" fill="#ABB2BF"/>
</svg>
