<svg width="46" height="46" viewBox="0 0 46 46" fill="none" xmlns="http://www.w3.org/2000/svg" xmlns:xlink="http://www.w3.org/1999/xlink">
<path d="M23,0C10.304,0 0,10.304 0,23C0,35.696 10.304,46 23,46C35.673,46 46,35.696 46,23C46,10.304 35.673,0 23,0ZM38.192,10.603C41.023,14.051 42.59,18.363 42.633,22.825C41.984,22.701 35.498,21.378 28.963,22.201C28.813,21.879 28.687,21.528 28.537,21.18C28.138,20.231 27.689,19.26 27.241,18.334C34.474,15.393 37.769,11.152 38.194,10.6L38.192,10.603ZM23,3.392C27.988,3.392 32.554,5.261 36.024,8.332C35.673,8.832 32.703,12.797 25.72,15.416C22.5,9.505 18.935,4.663 18.386,3.916C19.898,3.563 21.447,3.387 23,3.392L23,3.392ZM14.642,5.238C17.275,8.887 19.707,12.676 21.928,16.589C12.748,19.033 4.64,18.984 3.766,18.984C4.398,16.01 5.709,13.223 7.595,10.839C9.482,8.455 11.894,6.539 14.642,5.241L14.642,5.238ZM3.344,23.029L3.344,22.425C4.192,22.454 13.722,22.577 23.526,19.633C24.098,20.729 24.622,21.853 25.122,22.974L24.346,23.198C14.22,26.467 8.832,35.397 8.381,36.147C5.137,32.547 3.343,27.872 3.344,23.026L3.344,23.029ZM23,42.656C18.634,42.663 14.393,41.205 10.954,38.516C11.299,37.792 15.292,30.11 26.367,26.243C26.418,26.217 26.441,26.217 26.493,26.194C28.36,31.014 29.763,36 30.682,41.087C28.255,42.129 25.641,42.664 23,42.656L23,42.656ZM33.954,39.29C33.753,38.091 32.703,32.355 30.136,25.294C36.297,24.323 41.685,25.918 42.357,26.142C41.938,28.795 40.975,31.332 39.529,33.595C38.082,35.857 36.183,37.796 33.951,39.29L33.954,39.29Z" clip-rule="evenodd" fill-rule="evenodd" fill="#ABB2BF"/>
</svg>
