<svg width="44" height="32" viewBox="0 0 44 32" fill="none" xmlns="http://www.w3.org/2000/svg" xmlns:xlink="http://www.w3.org/1999/xlink">
<path d="M0,5.333C0,3.919 0.579,2.562 1.611,1.562C2.642,0.562 4.041,0 5.5,0L38.5,0C39.959,0 41.358,0.562 42.389,1.562C43.421,2.562 44,3.919 44,5.333L44,18.667L0,18.667L0,5.333ZM31.625,8C31.26,8 30.911,8.14 30.653,8.391C30.395,8.641 30.25,8.98 30.25,9.333L30.25,12C30.25,12.354 30.395,12.693 30.653,12.943C30.911,13.193 31.26,13.333 31.625,13.333L37.125,13.333C37.49,13.333 37.839,13.193 38.097,12.943C38.355,12.693 38.5,12.354 38.5,12L38.5,9.333C38.5,8.98 38.355,8.641 38.097,8.391C37.839,8.14 37.49,8 37.125,8L31.625,8ZM0,24L0,26.667C0,28.081 0.579,29.438 1.611,30.438C2.642,31.438 4.041,32 5.5,32L38.5,32C39.959,32 41.358,31.438 42.389,30.438C43.421,29.438 44,28.081 44,26.667L44,24L0,24Z" fill="#ABB2BF"/>
</svg>
